# xmcd
#
# Track frame offsets:
# 150
# 11995
# 25328
# 35934
# 50730
# 67106
# 70139
# 83769
# 97169
# 110371
# 126914
# 141457
# 148461
# 161779
# 175372
# 189190
# 194137
# 214574
# 228382
# 242482
# 256439
# 271150
# 283450
# 297619
# 315505
# 328847
#
# Disc length: 4565 seconds
#
#
# Revision: 0
# Processed by: cddbd v1.5.2PL0 Copyright (c) Steve Scherf et al.
# Submitted via: FreeRIP 2.931 
#
DISCID=b111d31a
DTITLE=Leadbelly - The Definitive Leadbelly - Midnight Special
DYEAR=2009
DGENRE=Blues
TTITLE0=Rock Island Line
TTITLE1=Roberta
TTITLE2=House Of The Rising Sun
TTITLE3=Nobody Knows You When You're Down and Out
TTITLE4=Fannin' Street
TTITLE5=Yellow Gal
TTITLE6=C.C. Rider
TTITLE7=Alabama Bound
TTITLE8=Sweet Mary
TTITLE9=Going Back To Mary
TTITLE10=New Orleans
TTITLE11=Ha, Ha, This-A-way
TTITLE12=Daddy, I'm Coming Back To You
TTITLE13=Pick A Bale Of Cotton
TTITLE14=Midnight Special
TTITLE15=Sukey Jump
TTITLE16=How Long
TTITLE17=Leaving Blues
TTITLE18=T.B. Blues
TTITLE19=Red Cross Store
TTITLE20=sail On, Little Girl, Sail On
TTITLE21=Bull Cow
TTITLE22=Alberta
TTITLE23=Digging My Potatoes
TTITLE24=You Can't Lose Me Cholly
TTITLE25=Grey Goose
EXTD=
EXTT0=
EXTT1=
EXTT2=
EXTT3=
EXTT4=
EXTT5=
EXTT6=
EXTT7=
EXTT8=
EXTT9=
EXTT10=
EXTT11=
EXTT12=
EXTT13=
EXTT14=
EXTT15=
EXTT16=
EXTT17=
EXTT18=
EXTT19=
EXTT20=
EXTT21=
EXTT22=
EXTT23=
EXTT24=
EXTT25=
PLAYORDER=
